# xmcd
#
# Track frame offsets:
#	150
#	18773
#	37744
#	52444
#	73265
#	96045
#	111134
#	128227
#	144846
#	160274
#	175563
#	190849
#	205579
#	219395
#	232314
#
# Disc length: 3334 seconds
#
# Revision: 0
# Processed by: cddbd v1.5.2PL0 Copyright (c) Steve Scherf et al.
# Submitted via: audiograbber 1.83.01
#
DISCID=ce0d040f
DTITLE=Split Enz - The Rootin Tootin Luton Tapes
DYEAR=2007
DGENRE=Pop
TTITLE0=Miss Haps
TTITLE1=Home Comforts
TTITLE2=Animal Lover
TTITLE3=Carried Away
TTITLE4=Semi Detached
TTITLE5=Holy Smoke
TTITLE6=Message Boy
TTITLE7=Hypnotised
TTITLE8=Late In Rome
TTITLE9=Straight Talk
TTITLE10=Hollow Victory
TTITLE11=Evelyn
TTITLE12=Best Friend
TTITLE13=Creature Comforts
TTITLE14=Remember When
EXTD=
EXTT0=
EXTT1=
EXTT2=
EXTT3=
EXTT4=
EXTT5=
EXTT6=
EXTT7=
EXTT8=
EXTT9=
EXTT10=
EXTT11=
EXTT12=
EXTT13=
EXTT14=
PLAYORDER=
